<svg width="24" height="24" viewBox="0 0 24 24" fill="none" xmlns="http://www.w3.org/2000/svg">
<path fill-rule="evenodd" clip-rule="evenodd" d="M23.1785 3.17851C23.8294 2.52763 23.8294 1.47236 23.1785 0.821484C22.5276 0.17061 21.4723 0.17061 20.8215 0.821484L12 9.64297L3.17849 0.821484C2.52762 0.17061 1.47234 0.17061 0.821468 0.821484C0.170595 1.47236 0.170595 2.52763 0.821468 3.17851L9.64296 12L0.821468 20.8215C0.170595 21.4724 0.170595 22.5276 0.821468 23.1785C1.47234 23.8294 2.52762 23.8294 3.17849 23.1785L12 14.357L20.8215 23.1785C21.4723 23.8294 22.5276 23.8294 23.1785 23.1785C23.8294 22.5276 23.8294 21.4724 23.1785 20.8215L14.357 12L23.1785 3.17851Z" fill="black"/>
</svg>
