<svg width="34" height="24" viewBox="0 0 34 24" fill="none" xmlns="http://www.w3.org/2000/svg">
<path fill-rule="evenodd" clip-rule="evenodd" d="M1.99992 0.333336C1.07944 0.333336 0.333252 1.07953 0.333252 2C0.333252 2.92048 1.07944 3.66667 1.99992 3.66667H31.9999C32.9204 3.66667 33.6666 2.92048 33.6666 2C33.6666 1.07953 32.9204 0.333336 31.9999 0.333336H1.99992ZM8.66667 7.00002C7.74619 7.00002 7 7.74621 7 8.66669C7 9.58716 7.74619 10.3334 8.66667 10.3334H32C32.9205 10.3334 33.6667 9.58716 33.6667 8.66669C33.6667 7.74621 32.9205 7.00002 32 7.00002H8.66667ZM0.333333 15.3334C0.333333 14.4129 1.07953 13.6667 2 13.6667H32C32.9205 13.6667 33.6667 14.4129 33.6667 15.3334C33.6667 16.2538 32.9205 17 32 17H2C1.07953 17 0.333333 16.2538 0.333333 15.3334ZM8.66667 20.3334C7.74619 20.3334 7 21.0795 7 22C7 22.9205 7.74619 23.6667 8.66667 23.6667H32C32.9205 23.6667 33.6667 22.9205 33.6667 22C33.6667 21.0795 32.9205 20.3334 32 20.3334H8.66667Z" fill="#2B2C2D"/>
</svg>
